PathFileType	4	(X/Y/Z)	C:\Users\dbl\Desktop\20210112\20210112\bx_n_0_503.trc
DataRate	CameraRate	NumFrames	NumMarkers	Units	OrigDataRate	OrigDataStartFrame	OrigNumFrames
50.00	50.00	       4	43	mm	50.00	167	       333
Frame#	Time	Top.Head			R.Acromium			L.Acromium			Sternum			R.ASIS			L.ASIS			V.Sacral			R.Thigh.Upper			R.Thigh.Front			R.Thigh.Rear			R.Knee.Lat			R.Knee.Med			R.Shank.Upper			R.Shank.Front			R.Shank.Rear			R.Ankle.Lat			R.Midfoot.Lat			R.Toe.Lat			R.Toe.Tip			R.Toe.Med			R.Ankle.Med			R.Midfoot.Sup			R.Heel			L.Thigh.Upper			L.Thigh.Front			L.Thigh.Rear			L.Knee.Lat			L.Knee.Med			L.Shank.Upper			L.Shank.Front			L.Shank.Rear			L.Ankle.Lat			L.Midfoot.Lat			L.Toe.Lat			L.Toe.Tip			L.Toe.Med			L.Ankle.Med			L.Midfoot.Sup			L.Heel			origin1 front left			origin2 front right			origin 3 back right			origin 4 back leftt			
		X1	Y1	Z1	X2	Y2	Z2	X3	Y3	Z3	X4	Y4	Z4	X5	Y5	Z5	X6	Y6	Z6	X7	Y7	Z7	X8	Y8	Z8	X9	Y9	Z9	X10	Y10	Z10	X11	Y11	Z11	X12	Y12	Z12	X13	Y13	Z13	X14	Y14	Z14	X15	Y15	Z15	X16	Y16	Z16	X17	Y17	Z17	X18	Y18	Z18	X19	Y19	Z19	X20	Y20	Z20	X21	Y21	Z21	X22	Y22	Z22	X23	Y23	Z23	X24	Y24	Z24	X25	Y25	Z25	X26	Y26	Z26	X27	Y27	Z27	X28	Y28	Z28	X29	Y29	Z29	X30	Y30	Z30	X31	Y31	Z31	X32	Y32	Z32	X33	Y33	Z33	X34	Y34	Z34	X35	Y35	Z35	X36	Y36	Z36	X37	Y37	Z37	X38	Y38	Z38	X39	Y39	Z39	X40	Y40	Z40	X41	Y41	Z41	X42	Y42	Z42	X43	Y43	Z43	

167	3.320	-184.16980	134.97520	1507.80164	-371.60553	-63.08474	1284.84534	-392.28598	289.37024	1286.59192	-486.18347	111.11993	1096.67700	-721.34692	-24.46294	1001.42065	-713.85254	231.62395	1019.55145	-892.84515	90.60346	1100.09863	-793.12683	-76.01398	868.25958	-705.77258	-10.19385	805.00928	-792.34052	-68.67329	750.57031	-785.62274	-39.53625	610.56592	-767.44189	70.60254	568.06171	-785.62878	-36.84263	564.10675	-729.42645	12.30503	524.31348	-814.52747	-50.76520	478.97815	-763.30524	-22.76789	204.15170	-648.39008	-68.30756	160.94688	-605.56421	-72.59029	157.39528	-549.70313	-22.26538	162.47110	-601.27954	28.21513	167.86465	-726.03064	65.01165	219.12958	-676.13861	51.47112	162.07675	-794.96210	35.68627	173.92517	-807.48633	284.55048	871.08252	-703.26563	215.75470	795.96899	-791.88196	276.69699	737.25165	-810.23596	256.42661	631.89154	-765.66699	143.11757	571.02979	-794.17017	248.89748	569.19031	-737.23199	203.87793	536.82843	-819.32684	263.82367	491.29919	-768.47778	229.81290	203.31602	-652.25073	291.37286	156.65359	-615.02966	297.00330	158.50948	-553.95044	241.61165	165.41826	-590.28534	207.06729	173.07751	-720.30194	152.81937	220.59390	-676.49792	168.51808	160.59793	-796.95337	183.32449	182.48138	-528.03583	303.93558	146.49501	-517.90106	-72.97669	143.10173	-875.89893	-78.70051	141.21523	-882.62915	296.09665	144.68246	
168	3.340	-184.33856	135.02409	1507.19507	-371.94708	-63.16663	1284.36108	-392.66702	289.38116	1286.21350	-487.23770	111.10210	1096.03357	-722.09009	-24.42047	1001.04437	-714.31635	231.76163	1019.47736	-893.35779	90.60579	1099.99866	-793.71381	-75.92056	868.05927	-706.18579	-10.29520	805.08795	-792.77582	-68.72525	750.46460	-785.84509	-39.43890	610.42316	-767.82703	70.62965	568.01007	-785.94031	-36.83827	564.06683	-729.73633	12.34239	524.17090	-814.67358	-50.81621	478.93121	-763.32843	-22.79127	204.16757	-648.38824	-68.30429	160.95119	-605.58221	-72.59215	157.48724	-549.70355	-22.31013	162.50330	-601.27893	28.20485	167.88605	-725.97198	65.11861	219.21072	-676.15582	51.50499	162.06877	-795.03876	35.78284	173.97055	-807.97778	284.44757	870.85754	-703.48499	215.95500	796.14972	-792.23889	276.50830	736.98627	-810.46112	256.41290	631.79449	-765.92694	143.11461	571.04327	-794.33063	248.95570	569.16766	-737.44818	203.93216	536.83392	-819.55176	263.81091	491.28229	-768.46600	229.81979	203.31149	-652.21667	291.33704	156.64305	-615.02454	297.00055	158.50354	-553.97192	241.60345	165.38512	-590.27533	207.05502	173.09373	-720.28864	152.83408	220.62013	-676.51147	168.52760	160.58377	-796.96777	183.33011	182.44650	-528.03119	303.98804	146.49377	-517.90912	-72.98875	143.11551	-875.91699	-78.70424	141.23335	-882.61572	296.11389	144.70692	
169	3.360	-184.59207	135.12607	1506.72156	-372.30264	-63.22660	1283.95471	-393.13043	289.33203	1285.88403	-488.29321	111.07528	1095.47681	-722.80316	-24.33838	1000.68604	-714.75647	231.91026	1019.42896	-893.82904	90.60098	1099.94116	-794.24176	-75.85723	867.89893	-706.55316	-10.36543	805.13348	-793.20502	-68.70945	750.31256	-786.06860	-39.38008	610.29297	-768.19922	70.62758	567.97278	-786.26392	-36.87330	564.06543	-729.95898	12.33640	524.09064	-814.80505	-50.85788	478.86230	-763.35742	-22.83206	204.18619	-648.39056	-68.29003	160.93501	-605.62006	-72.56693	157.56749	-549.70483	-22.35118	162.51494	-601.29169	28.18583	167.88657	-725.94171	65.18256	219.25479	-676.14746	51.49007	162.05507	-795.07062	35.82863	173.97858	-808.47113	284.35617	870.65851	-703.78406	216.17505	796.27728	-792.67010	276.18558	736.65540	-810.70392	256.44611	631.64435	-766.20953	143.10251	571.03247	-794.49548	249.00806	569.13922	-737.72083	203.96001	536.81805	-819.70770	263.81601	491.22375	-768.43243	229.81377	203.31058	-652.18677	291.32809	156.67821	-615.02173	296.99997	158.48831	-553.99127	241.59830	165.36462	-590.26398	207.04446	173.11180	-720.26758	152.84769	220.65062	-676.52228	168.54091	160.57611	-797.00098	183.33253	182.41136	-528.04529	304.01605	146.47038	-517.91675	-72.98017	143.13213	-875.93353	-78.71799	141.22781	-882.60095	296.12769	144.72899	
170	3.380	-184.93182	135.30028	1506.35742	-372.70456	-63.24458	1283.65308	-393.61218	289.23550	1285.61279	-489.34470	111.03958	1095.00647	-723.48535	-24.21855	1000.34692	-715.17346	232.06873	1019.40582	-894.31158	90.58739	1099.92822	-794.69135	-75.84286	867.78821	-706.87781	-10.36418	805.12256	-793.55060	-68.66066	750.17047	-786.27283	-39.37239	610.19733	-768.50433	70.62820	567.94849	-786.54150	-36.93353	564.08490	-730.01538	12.27843	524.12708	-814.92419	-50.87941	478.78598	-763.37671	-22.87365	204.20743	-648.38666	-68.27303	160.92751	-605.64032	-72.53888	157.59819	-549.70618	-22.35877	162.49916	-601.30109	28.16124	167.85460	-725.96246	65.15511	219.22873	-676.12451	51.43847	162.04945	-795.04041	35.80230	173.94164	-808.92615	284.32028	870.51660	-704.15540	216.33905	796.29602	-793.13947	275.80035	736.30823	-811.00250	256.49332	631.47321	-766.48706	143.06981	570.99945	-794.72241	249.04471	569.11157	-738.02478	203.97333	536.81531	-819.81317	263.84116	491.14487	-768.40314	229.80489	203.30676	-652.17548	291.34009	156.72609	-615.01611	297.00119	158.47095	-554.00458	241.60484	165.36400	-590.25287	207.03703	173.12016	-720.26160	152.84651	220.66252	-676.52618	168.54704	160.57428	-797.03601	183.33603	182.38885	-528.08081	304.01074	146.44568	-517.92908	-72.95718	143.13620	-875.94336	-78.73308	141.22171	-882.58783	296.13931	144.73721	
